PathFileType  4	(X/Y/Z) C:\Users\antoi\Documents\MyRepositories\mobilecap\ResultsAnalysis
DataRate	CameraRate	NumFrames	NumMarkers	Units	OrigDataRate	OrigDataStartFrame	OrigNumFrames
100.0	100.0	4	51	mm	100.0	1	291
Frame#	Time	r_knee			r_shank_antsup			r_ankle			r_calc			r_5meta			r_toe			L_knee			L_shank_antsup			L_ankle			L_calc			L_5meta			L_toe			r_sh2			r_sh3			r_sh4			L_sh2			L_sh3			r_thigh1			r_thigh2			r_thigh3			r_thigh4			r_thigh5			L_thigh1			L_thigh2			L_thigh3			L_thigh4			r.ASIS			r.PSIS			L.ASIS			L.PSIS			C7			R_Shoulder			L_Shoulder			R_Sternum			L_Sternum			R_humerus			R_elbow_med			R_elbow_lat			R_forearm			R_wrist_radius			R_wrist_ulna			L_humerus			L_elbow_med			L_elbow_lat			L_forearm			L_wrist_radius			L_wrist_ulna			R_HJC			L_HJC			R_HJC_reg			L_HJC_reg			
		X1	Y1	Z1	X2	Y2	Z2	X3	Y3	Z3	X4	Y4	Z4	X5	Y5	Z5	X6	Y6	Z6	X7	Y7	Z7	X8	Y8	Z8	X9	Y9	Z9	X10	Y10	Z10	X11	Y11	Z11	X12	Y12	Z12	X13	Y13	Z13	X14	Y14	Z14	X15	Y15	Z15	X16	Y16	Z16	X17	Y17	Z17	X18	Y18	Z18	X19	Y19	Z19	X20	Y20	Z20	X21	Y21	Z21	X22	Y22	Z22	X23	Y23	Z23	X24	Y24	Z24	X25	Y25	Z25	X26	Y26	Z26	X27	Y27	Z27	X28	Y28	Z28	X29	Y29	Z29	X30	Y30	Z30	X31	Y31	Z31	X32	Y32	Z32	X33	Y33	Z33	X34	Y34	Z34	X35	Y35	Z35	X36	Y36	Z36	X37	Y37	Z37	X38	Y38	Z38	X39	Y39	Z39	X40	Y40	Z40	X41	Y41	Z41	X42	Y42	Z42	X43	Y43	Z43	X44	Y44	Z44	X45	Y45	Z45	X46	Y46	Z46	X47	Y47	Z47	X48	Y48	Z48	X49	Y49	Z49	X50	Y50	Z50	X51	Y51	Z51	

1	0.00000000	-1204.00492	804.88889	-427.78503	-1239.56939	759.69092	-397.72571	-1248.44739	405.75315	-464.60564	-1303.68983	364.47591	-519.73235	-1129.33838	346.83750	-421.51251	-1083.50244	369.21817	-472.47291	-1204.03931	804.61455	-749.01463	-1185.04101	719.34950	-755.54980	-1249.63306	405.81686	-713.59460	-1311.81580	367.59155	-666.16084	-1129.76587	351.64310	-730.70325	-1088.30445	369.85123	-673.24951	-1243.48706	645.54988	-395.31315	-1170.79762	760.10292	-435.06840	-1177.78602	645.57990	-449.25809	-1270.32324	734.34155	-773.77327	-1278.40881	612.60839	-765.02483	-1089.74270	1092.15479	-483.12373	-1092.21708	980.56486	-472.79515	-1115.30999	964.78447	-409.84396	-1156.95130	1100.98571	-394.23043	-1162.21353	986.28023	-387.61370	-1131.59232	1123.83216	-759.99111	-1142.05093	982.96190	-770.46599	-1243.39274	1131.67334	-769.28951	-1255.61439	991.88079	-751.31188	-1100.49685	1275.35852	-455.72568	-1289.25723	1313.18750	-538.60938	-1092.87455	1263.87683	-695.27809	-1288.08588	1313.06153	-636.35419	-1229.21034	1785.17480	-599.63145	-1168.61254	1736.80985	-430.14131	-1174.51319	1725.03845	-759.57120	-1133.33071	1676.45178	-581.00558	-1130.98873	1673.86720	-615.97260	-1189.03059	1506.37158	-337.09076	-1254.59945	1403.37679	-367.82370	-1210.40958	1418.01022	-311.95353	-1093.97202	1465.05657	-372.22337	-1033.53474	1524.25716	-429.05025	-1014.74438	1483.68651	-428.24893	-1213.55564	1498.66935	-843.46251	-1269.53955	1391.54389	-796.49696	-1239.71683	1392.88800	-860.44807	-1106.90779	1439.52396	-812.83496	-1032.96492	1497.46712	-759.01705	-1016.47809	1455.14347	-759.04335	-1176.91863	1195.20074	-492.73687	-1182.93874	1197.93891	-683.29353	-1170.08842	1199.67280	-489.80210	-1168.19073	1199.46872	-648.15660	
2	0.01000000	-1204.00643	804.86263	-427.79161	-1239.91576	759.52710	-397.77413	-1248.41805	404.66321	-464.59599	-1303.69018	364.47874	-519.71739	-1129.27654	346.71543	-421.57539	-1083.50956	369.20408	-472.46322	-1203.97255	804.63316	-748.89923	-1184.96413	719.35183	-755.53008	-1249.63271	405.80791	-713.58664	-1311.82216	367.59820	-666.16253	-1129.77192	351.64848	-730.70138	-1088.30055	369.88900	-673.36028	-1243.48684	645.54677	-395.32320	-1170.77627	760.13006	-435.07602	-1177.80019	645.56223	-449.26162	-1270.25039	734.35761	-773.76475	-1278.39280	612.58161	-765.00177	-1089.78795	1092.12532	-483.07864	-1092.26569	980.58697	-472.74523	-1115.33748	964.69840	-409.79729	-1156.92485	1100.95528	-394.17349	-1162.28625	986.30083	-387.60223	-1131.64320	1123.88890	-759.93991	-1142.06411	982.96399	-770.47525	-1243.45142	1131.66032	-769.36161	-1255.61116	991.89003	-751.27325	-1100.48265	1275.36034	-455.72709	-1289.24836	1313.22417	-538.60509	-1092.88169	1263.76714	-695.25647	-1288.06920	1313.13967	-636.43924	-1228.97787	1785.17848	-599.64497	-1168.47133	1737.39911	-429.96743	-1174.35388	1725.03539	-759.47611	-1133.11420	1676.49256	-581.10714	-1130.81109	1673.83913	-615.97841	-1188.22327	1506.37123	-337.13205	-1254.12468	1403.45582	-367.46313	-1209.59759	1417.89168	-312.14087	-1093.38869	1465.30116	-372.55976	-1033.26623	1524.77472	-429.60354	-1013.96093	1484.50677	-428.26278	-1212.71938	1498.46000	-843.16086	-1268.32663	1390.20083	-795.84319	-1238.64680	1392.41269	-859.75514	-1106.01215	1439.71196	-811.95534	-1032.55503	1497.82694	-758.15822	-1015.75358	1455.62563	-758.24309	-1176.97345	1195.22425	-492.71728	-1182.97800	1197.89941	-683.27532	-1170.09313	1199.58780	-489.83284	-1168.18469	1199.45100	-648.17522	
3	0.02000000	-1203.99828	804.85317	-427.79353	-1239.94165	759.38314	-397.77846	-1248.40630	404.21011	-464.59025	-1303.72351	364.46455	-519.75585	-1129.25570	346.65555	-421.61191	-1083.51380	369.20378	-472.45722	-1203.90103	804.61807	-748.80868	-1184.89662	719.34974	-755.51774	-1249.62802	405.81671	-713.58872	-1311.81937	367.60364	-666.16278	-1129.77024	351.64607	-730.70264	-1088.31455	369.89598	-673.40277	-1243.47691	645.55487	-395.34412	-1170.73455	760.13534	-435.08501	-1177.79457	645.54169	-449.24366	-1270.12619	734.42594	-773.81150	-1278.36442	612.57175	-764.98020	-1089.82448	1092.12684	-483.04960	-1092.30484	980.59301	-472.71735	-1115.32877	964.68363	-409.72817	-1156.92682	1100.99306	-394.14047	-1162.30823	986.29340	-387.58462	-1131.70186	1123.89935	-759.94669	-1142.08972	982.97374	-770.49103	-1243.51154	1131.65545	-769.48984	-1255.65250	991.89711	-751.07784	-1100.51487	1275.33765	-455.73201	-1289.27781	1313.24205	-538.54924	-1092.94908	1263.73784	-695.24288	-1288.14723	1313.12785	-636.44565	-1228.72656	1785.18587	-599.65803	-1168.09617	1737.32913	-430.23054	-1174.14156	1725.04300	-759.57662	-1132.85802	1676.50604	-581.12940	-1130.74750	1673.98835	-616.15623	-1187.49029	1506.33216	-337.20862	-1253.38640	1403.29434	-367.63998	-1208.70562	1417.90192	-312.23004	-1092.79891	1465.54546	-372.94299	-1033.02278	1525.23361	-430.25855	-1013.73360	1484.98937	-428.90275	-1211.89112	1498.22056	-842.79558	-1267.19432	1389.47759	-795.26209	-1237.50691	1392.02529	-859.17033	-1105.14046	1439.91741	-811.31325	-1032.02112	1498.34694	-757.40364	-1014.97638	1456.25501	-757.64599	-1177.02520	1195.21704	-492.69812	-1183.05924	1197.87900	-683.25542	-1170.12706	1199.62114	-489.77711	-1168.29855	1199.43648	-648.10762	
4	0.03000000	-1203.99281	804.87955	-427.79703	-1240.02950	759.25038	-397.78493	-1248.42279	404.87697	-464.59461	-1303.76647	364.44476	-519.80985	-1129.25673	346.65479	-421.61094	-1083.50447	369.21809	-472.44934	-1203.83176	804.58985	-748.75044	-1184.83353	719.34970	-755.50945	-1249.62276	405.82963	-713.58280	-1311.81564	367.58861	-666.14678	-1129.76529	351.64610	-730.70563	-1088.33084	369.90133	-673.39236	-1243.50199	645.57454	-395.40538	-1170.71888	760.13432	-435.09236	-1177.79646	645.51820	-449.21566	-1270.00010	734.50633	-773.86658	-1278.33369	612.58426	-764.95323	-1089.85396	1092.13945	-483.03305	-1092.33543	980.58769	-472.70435	-1115.31731	964.70078	-409.67326	-1156.95849	1101.09296	-394.05406	-1162.30752	986.28823	-387.53140	-1131.77224	1123.91750	-760.00884	-1142.12972	982.98220	-770.50797	-1243.58359	1131.65706	-769.60642	-1255.69802	991.87467	-750.92372	-1100.56511	1275.31776	-455.74372	-1289.34233	1313.23944	-538.44262	-1093.06501	1263.73413	-695.24495	-1288.26639	1313.10281	-636.36868	-1228.46552	1785.20152	-599.68712	-1167.56300	1736.86649	-430.72528	-1173.90115	1725.04973	-759.78480	-1132.58049	1676.50007	-581.12221	-1130.59370	1674.10946	-616.32161	-1186.76034	1506.28803	-337.34622	-1252.45336	1403.16875	-367.91727	-1207.76037	1417.96901	-312.26958	-1092.18047	1465.83003	-373.32786	-1032.79436	1525.68960	-430.92801	-1013.54665	1485.42026	-429.58554	-1211.00214	1498.00372	-842.54843	-1266.05225	1389.19487	-794.98746	-1236.24622	1391.75419	-858.89081	-1104.21803	1440.15912	-810.78048	-1031.37879	1498.95427	-756.61796	-1014.15180	1456.95072	-757.00616	-1177.07380	1195.20060	-492.66647	-1183.18680	1197.87095	-683.22112	-1170.17691	1199.64843	-489.73110	-1168.43738	1199.42751	-648.05435	
